<?xml version="1.0" encoding="UTF-8" standalone="no"?>
<svg width="545px" height="214px" viewBox="0 0 545 214" version="1.1" xmlns="http://www.w3.org/2000/svg" xmlns:xlink="http://www.w3.org/1999/xlink">
    <!-- Generator: Sketch 3.6.1 (26313) - http://www.bohemiancoding.com/sketch -->
    <title>DREAD</title>
    <desc>Created with Sketch.</desc>
    <defs></defs>
    <g id="Page-1" stroke="none" stroke-width="1" fill="none" fill-rule="evenodd">
        <g id="Artboard-1-Copy-3" transform="translate(-6.000000, -20.000000)" fill="#000000">
            <path d="M442.600005,128.813702 L434.248005,168.269702 L392.632005,168.269702 L400.984005,128.813702 L378.232005,128.813702 L368.309316,176.045702 L324.683998,176.045702 L321.083998,192.893702 L344.843998,192.893702 C343.883994,196.157719 342.660006,199.157689 341.171998,201.893702 C339.683991,204.629716 337.81201,206.957693 335.555998,208.877702 C333.299987,210.797712 330.612014,212.309697 327.491998,213.413702 C324.371983,214.517708 320.65202,215.069702 316.331998,215.069702 C312.203978,215.069702 308.676013,214.34971 305.747998,212.909702 C302.819984,211.469695 300.420008,209.525715 298.547998,207.077702 C296.675989,204.62969 295.284003,201.821718 294.371998,198.653702 C293.459994,195.485686 293.003998,192.12572 293.003998,188.573702 C293.003998,183.677678 293.675992,178.661728 295.019998,173.525702 C296.364005,168.389677 298.403985,163.733723 301.139998,159.557702 C303.876012,155.381681 307.379977,151.973716 311.651998,149.333702 C315.92402,146.693689 320.93997,145.373702 326.699998,145.373702 C333.03603,145.373702 338.02798,146.693689 341.675998,149.333702 C345.324017,151.973716 347.291997,156.461671 347.579998,162.797702 L370.187998,162.797702 C370.187998,156.461671 369.03601,151.013725 366.731998,146.453702 C364.427987,141.89368 361.308018,138.125717 357.371998,135.149702 C353.435979,132.173687 348.828025,129.96571 343.547998,128.525702 C338.267972,127.085695 332.604029,126.365702 326.555998,126.365702 C317.915955,126.365702 310.116033,128.045686 303.155998,131.405702 C296.195964,134.765719 290.292023,139.301674 285.443998,145.013702 C280.595974,150.725731 276.876011,157.325665 274.283998,164.813702 C273.537304,166.970819 272.898164,169.163776 272.366576,171.39258 C272.370191,171.072177 272.371998,170.751218 272.371998,170.429702 C272.371998,163.229666 271.292009,156.89373 269.131998,151.421702 C266.971988,145.949675 263.924018,141.341721 259.987998,137.597702 C256.051979,133.853684 251.252027,131.045712 245.587998,129.173702 C239.92397,127.301693 233.636033,126.365702 226.723998,126.365702 C218.083955,126.365702 210.284033,128.045686 203.323998,131.405702 C196.363964,134.765719 190.460023,139.301674 185.611998,145.013702 C181.568293,149.778068 178.309394,155.16016 175.835235,161.160093 L182.675998,128.813702 L161.939998,128.813702 L147.251998,201.965702 L119.027998,128.813702 L95.6999985,128.813702 L74.0999985,231.629702 L95.1239985,231.629702 L109.811998,159.485702 L138.323998,231.629702 L160.931998,231.629702 L170.609841,185.868248 C170.579279,186.764971 170.563998,187.666789 170.563998,188.573702 C170.563998,203.261776 174.523959,214.493663 182.443998,222.269702 C190.364038,230.045741 201.619926,233.933702 216.211998,233.933702 C225.236044,233.933702 233.227964,232.229719 240.187998,228.821702 C247.148033,225.413685 253.003975,220.781732 257.755998,214.925702 C262.508022,209.069673 266.131986,202.301741 268.627998,194.621702 C269.311033,192.520059 269.900609,190.389669 270.396729,188.230527 C270.396242,188.344838 270.395998,188.459229 270.395998,188.573702 C270.395998,203.261776 274.355959,214.493663 282.275998,222.269702 C290.196038,230.045741 301.451926,233.933702 316.043998,233.933702 C320.940023,233.933702 325.643976,232.949712 330.155998,230.981702 C334.668021,229.013692 338.603982,225.725725 341.963998,221.117702 L342.251998,231.629702 L356.507998,231.629702 L379.240005,231.629702 L388.600005,187.277702 L430.216005,187.277702 L420.856005,231.629702 L443.608005,231.629702 L461.332105,147.821702 L492.999998,147.821702 L475.431998,231.629702 L498.183998,231.629702 L515.751998,147.821702 L546.567998,147.821702 L550.599998,128.813702 L465.064002,128.813702 L442.600005,128.813702 L442.600005,128.813702 Z M351.737696,102.943886 L337.916001,20.0137145 L314.732001,20.0137145 L265.315799,103.821715 L208.768,103.821715 L214.096,78.6217145 L265.792,78.6217145 L269.536,61.0537145 L217.84,61.0537145 L222.448,39.0217145 L278.32,39.0217145 L282.208,20.0137145 L203.728,20.0137145 L183.720121,115.890396 C183.610707,114.287886 183.556,112.617002 183.556,110.877715 C183.556,107.709699 183.675999,104.517731 183.916,101.301715 C184.156001,98.0856984 184.276,95.325726 184.276,93.0217145 C184.276,88.8936939 183.556007,85.1737311 182.116,81.8617145 C180.675993,78.549698 177.844021,76.2217212 173.62,74.8777145 L173.62,74.5897145 C177.076017,74.1097121 180.243986,73.0537227 183.124,71.4217145 C186.004015,69.7897064 188.49999,67.7497268 190.612,65.3017145 C192.724011,62.8537023 194.355994,60.0457304 195.508,56.8777145 C196.660006,53.7096987 197.236,50.3977318 197.236,46.9417145 C197.236,41.9496896 196.516007,37.7257318 195.076,34.2697145 C193.635993,30.8136972 191.572014,28.0057253 188.884,25.8457145 C186.195987,23.6857037 182.956019,22.1497191 179.164,21.2377145 C175.371981,20.32571 171.172023,19.917714 166.564,20.0137145 L117.46,20.0137145 L108.305665,63.8807951 C108.357889,62.615493 108.384,61.337133 108.384,60.0457145 C108.384,47.2776507 104.736036,37.4137493 97.44,30.4537145 C90.1439635,23.4936797 79.2480725,20.0137145 64.752,20.0137145 L27.6,20.0137145 L6,122.829715 L48.912,122.829715 C58.8000494,122.829715 67.4639628,121.24573 74.904,118.077715 C82.3440372,114.909699 88.5359753,110.517743 93.48,104.901715 C97.4084056,100.439351 100.563998,95.325492 102.946832,89.5600378 L96.0040002,122.829715 L118.468,122.829715 L126.964,82.6537145 L148.276,82.6537145 C150.484011,82.6537145 152.499991,82.8217128 154.324,83.1577145 C156.148009,83.4937162 157.707994,84.1417097 159.004,85.1017145 C160.300007,86.0617193 161.307997,87.3337066 162.028,88.9177145 C162.748004,90.5017224 163.108,92.541702 163.108,95.0377145 C163.108,98.4937318 162.916002,101.973697 162.532,105.477715 C162.147998,108.981732 161.956,112.461697 161.956,115.917715 C161.956,117.06972 162.051999,118.197709 162.244,119.301715 C162.436001,120.40572 162.675999,121.581708 162.964,122.829715 L183.634,122.829715 L257.79,122.829715 L277.868001,122.829715 L290.828001,99.9337145 L329.276001,99.9337145 L332.588001,122.829715 L351.306001,122.829715 L390.472001,122.829715 C400.36005,122.829715 409.023964,121.24573 416.464001,118.077715 C423.904038,114.909699 430.095976,110.517743 435.040001,104.901715 C439.984025,99.2856864 443.703988,92.6377529 446.200001,84.9577145 C448.696013,77.2776761 449.944001,68.9737592 449.944001,60.0457145 C449.944001,47.2776507 446.296037,37.4137493 439.000001,30.4537145 C431.703964,23.4936797 420.808073,20.0137145 406.312001,20.0137145 L369.160001,20.0137145 L351.737696,102.943886 L351.737696,102.943886 L351.737696,102.943886 Z M32.496,103.821715 L46.32,39.0217145 L63.312,39.0217145 C67.3440202,39.0217145 70.7759858,39.6217085 73.608,40.8217145 C76.4400142,42.0217205 78.7679909,43.7257035 80.592,45.9337145 C82.4160091,48.1417256 83.7359959,50.7576994 84.552,53.7817145 C85.3680041,56.8057296 85.776,60.1896958 85.776,63.9337145 C85.776,69.4057419 84.9840079,74.5416905 83.4,79.3417145 C81.8159921,84.1417385 79.5120151,88.3656963 76.488,92.0137145 C73.4639849,95.6617328 69.7200223,98.541704 65.256,100.653715 C60.7919777,102.765725 55.6800288,103.821715 49.92,103.821715 L32.496,103.821715 L32.496,103.821715 L32.496,103.821715 Z M130.42,66.5257145 L136.468,37.5817145 L157.924,37.5817145 C160.132011,37.5817145 162.24399,37.7257131 164.26,38.0137145 C166.27601,38.301716 168.051993,38.8777102 169.588,39.7417145 C171.124008,40.6057188 172.347996,41.8777061 173.26,43.5577145 C174.172005,45.2377229 174.628,47.4697006 174.628,50.2537145 C174.628,53.1337289 173.980007,55.6057042 172.684,57.6697145 C171.387994,59.7337248 169.660011,61.413708 167.5,62.7097145 C165.339989,64.005721 162.868014,64.9657114 160.084,65.5897145 C157.299986,66.2137176 154.372016,66.5257145 151.3,66.5257145 L130.42,66.5257145 L130.42,66.5257145 L130.42,66.5257145 Z M299.756001,83.0857145 L321.932001,42.1897145 L322.220001,42.1897145 L327.260001,83.0857145 L299.756001,83.0857145 L299.756001,83.0857145 L299.756001,83.0857145 Z M374.056001,103.821715 L387.880001,39.0217145 L404.872001,39.0217145 C408.904021,39.0217145 412.335987,39.6217085 415.168001,40.8217145 C418.000015,42.0217205 420.327992,43.7257035 422.152001,45.9337145 C423.97601,48.1417256 425.295997,50.7576994 426.112001,53.7817145 C426.928005,56.8057296 427.336001,60.1896958 427.336001,63.9337145 C427.336001,69.4057419 426.544009,74.5416905 424.960001,79.3417145 C423.375993,84.1417385 421.072016,88.3656963 418.048001,92.0137145 C415.023986,95.6617328 411.280023,98.541704 406.816001,100.653715 C402.351978,102.765725 397.24003,103.821715 391.480001,103.821715 L374.056001,103.821715 L374.056001,103.821715 L374.056001,103.821715 Z M193.171998,188.573702 C193.171998,183.677678 193.843992,178.661728 195.187998,173.525702 C196.532005,168.389677 198.571985,163.733723 201.307998,159.557702 C204.044012,155.381681 207.547977,151.973716 211.819998,149.333702 C216.09202,146.693689 221.10797,145.373702 226.867998,145.373702 C231.09202,145.373702 234.643984,146.093695 237.523998,147.533702 C240.404013,148.97371 242.755989,150.89369 244.579998,153.293702 C246.404008,155.693714 247.723994,158.501686 248.539998,161.717702 C249.356003,164.933718 249.763998,168.365684 249.763998,172.013702 C249.763998,176.909727 249.068005,181.901677 247.675998,186.989702 C246.283992,192.077728 244.196012,196.709681 241.411998,200.885702 C238.627985,205.061723 235.172019,208.469689 231.043998,211.109702 C226.915978,213.749716 222.068026,215.069702 216.499998,215.069702 C212.371978,215.069702 208.844013,214.34971 205.915998,212.909702 C202.987984,211.469695 200.588008,209.525715 198.715998,207.077702 C196.843989,204.62969 195.452003,201.821718 194.539998,198.653702 C193.627994,195.485686 193.171998,192.12572 193.171998,188.573702 L193.171998,188.573702 L193.171998,188.573702 Z" id="DREAD"></path>
        </g>
    </g>
</svg>