<?xml version="1.0" encoding="UTF-8" standalone="no"?>
<svg width="723px" height="206px" viewBox="0 0 723 206" version="1.1" xmlns="http://www.w3.org/2000/svg" xmlns:xlink="http://www.w3.org/1999/xlink">
    <!-- Generator: Sketch 3.6.1 (26313) - http://www.bohemiancoding.com/sketch -->
    <title>DREAD</title>
    <desc>Created with Sketch.</desc>
    <defs></defs>
    <g id="Page-1" stroke="none" stroke-width="1" fill="none" fill-rule="evenodd">
        <g id="Artboard-1-Copy-5" transform="translate(-71.000000, -30.000000)" fill="#000000">
            <path d="M610.621313,177.420005 L567.896002,177.420005 L564.296002,194.268005 L588.056002,194.268005 C587.095997,197.532022 585.872009,200.531992 584.384002,203.268005 C582.895994,206.004019 581.024013,208.331996 578.768002,210.252005 C576.51199,212.172015 573.824017,213.684 570.704002,214.788005 C567.583986,215.892011 563.864023,216.444005 559.544002,216.444005 C555.415981,216.444005 551.888016,215.724013 548.960002,214.284005 C546.031987,212.843998 543.632011,210.900018 541.760002,208.452005 C539.887992,206.003993 538.496006,203.196021 537.584002,200.028005 C536.671997,196.85999 536.216002,193.500023 536.216002,189.948005 C536.216002,185.051981 536.887995,180.036031 538.232002,174.900005 C539.576008,169.76398 541.615988,165.108026 544.352002,160.932005 C547.088015,156.755985 550.59198,153.348019 554.864002,150.708005 C559.136023,148.067992 564.151973,146.748005 569.912002,146.748005 C576.248033,146.748005 581.239983,148.067992 584.888002,150.708005 C588.53602,153.348019 590.504,157.835974 590.792002,164.172005 L613.400002,164.172005 C613.400002,157.835974 612.248013,152.388028 609.944002,147.828005 C607.63999,143.267983 604.520021,139.50002 600.584002,136.524005 C596.647982,133.547991 592.040028,131.340013 586.760002,129.900005 C581.479975,128.459998 575.816032,127.740005 569.768002,127.740005 C561.127958,127.740005 553.328036,129.419989 546.368002,132.780005 C539.407967,136.140022 533.504026,140.675977 528.656002,146.388005 C523.807977,152.100034 520.088015,158.699968 517.496002,166.188005 C517.234575,166.943238 516.986332,167.702865 516.751273,168.466884 L524.776002,130.188005 L502.168002,130.188005 L489.352002,191.100005 C488.487997,194.940025 487.552007,198.44399 486.544002,201.612005 C485.535997,204.780021 484.144011,207.443995 482.368002,209.604005 C480.591993,211.764016 478.264016,213.443999 475.384002,214.644005 C472.503987,215.844011 468.760025,216.444005 464.152002,216.444005 C460.215982,216.444005 457.000014,215.96401 454.504002,215.004005 C452.007989,214.044001 450.040009,212.868012 448.600002,211.476005 C447.159994,210.083999 446.176004,208.572014 445.648002,206.940005 C445.119999,205.307997 444.856002,203.868012 444.856002,202.620005 C444.856002,201.756001 444.928001,200.772011 445.072002,199.668005 C445.216002,198.564 445.408,197.388012 445.648002,196.140005 C445.888003,194.891999 446.128,193.716011 446.368002,192.612005 C446.608003,191.508 446.824001,190.52401 447.016002,189.660005 L458.9124,133.186298 L465.241987,133.186298 C475.130036,133.186298 483.793949,131.602314 491.233987,128.434298 C498.674024,125.266282 504.865962,120.874326 509.809987,115.258298 C514.754011,109.64227 518.473974,102.994336 520.969987,95.3142977 C523.465999,87.6342593 524.713987,79.3303423 524.713987,70.4022977 C524.713987,57.6342339 521.066023,47.7703325 513.769987,40.8102977 C506.47395,33.8502629 495.578059,30.3702977 481.081987,30.3702977 L443.929987,30.3702977 L423.54991,127.379461 L407.384002,30.3840122 L384.200002,30.3840122 L329.376848,123.361998 L331.321996,114.192012 L274.585996,114.192012 L279.913996,88.9920122 L331.609996,88.9920122 L335.353996,71.4240122 L283.657996,71.4240122 L288.265996,49.3920122 L344.137996,49.3920122 L348.025996,30.3840122 L269.545996,30.3840122 L263.681648,58.485653 C263.696551,58.0963028 263.704002,57.7050892 263.704002,57.3120122 C263.704002,52.3199872 262.984009,48.0960295 261.544002,44.6400122 C260.103995,41.1839949 258.040015,38.376023 255.352002,36.2160122 C252.663988,34.0560014 249.424021,32.5200168 245.632002,31.6080122 C241.839983,30.6960076 237.640025,30.2880117 233.032002,30.3840122 L183.928002,30.3840122 L173.007469,82.7146188 C173.570492,78.7558505 173.852002,74.6563238 173.852002,70.4160122 C173.852002,57.6479484 170.204038,47.784047 162.908002,40.8240122 C155.611965,33.8639774 144.716074,30.3840122 130.220002,30.3840122 L93.0680015,30.3840122 L71.4680015,133.200012 L114.380002,133.200012 C124.268051,133.200012 132.931964,131.616028 140.372002,128.448012 C147.812039,125.279996 154.003977,120.88804 158.948002,115.272012 C163.892026,109.655984 167.611989,103.008051 170.108002,95.3280122 C170.415282,94.3825335 170.703648,93.4275994 170.973099,92.4632095 L162.472002,133.200012 L184.936002,133.200012 L193.432002,93.0240122 L214.744002,93.0240122 C216.952013,93.0240122 218.967993,93.1920105 220.792002,93.5280122 C222.616011,93.8640139 224.175995,94.5120074 225.472002,95.4720122 C226.768008,96.432017 227.775998,97.7040043 228.496002,99.2880122 C229.216005,100.87202 229.576002,102.912 229.576002,105.408012 C229.576002,108.864029 229.384004,112.343995 229.000002,115.848012 C228.616,119.35203 228.424002,122.831995 228.424002,126.288012 C228.424002,127.440018 228.520001,128.568007 228.712002,129.672012 C228.904003,130.776018 229.144,131.952006 229.432002,133.200012 L248.05638,133.200012 L227.089996,232.999998 L248.113996,232.999998 L262.801996,160.855998 L291.313996,232.999998 L313.921996,232.999998 L335.028156,133.200012 L347.336002,133.200012 L360.296002,110.304012 L398.744002,110.304012 L401.755982,131.125962 C401.21697,130.924302 400.669643,130.73165 400.114,130.548005 C394.449972,128.675996 388.162035,127.740005 381.25,127.740005 C372.609957,127.740005 364.810035,129.419989 357.85,132.780005 C350.889965,136.140022 344.986024,140.675977 340.138,146.388005 C335.289976,152.100034 331.570013,158.699968 328.978,166.188005 C326.385987,173.676043 325.09,181.595964 325.09,189.948005 C325.09,204.636079 329.049961,215.867967 336.97,223.644005 C344.89004,231.420044 356.145927,235.308005 370.738,235.308005 C379.762045,235.308005 387.753965,233.604023 394.714,230.196005 C401.674035,226.787988 407.529976,222.156035 412.282,216.300005 C417.034024,210.443976 420.657988,203.676044 423.154,195.996005 C423.19086,195.882592 423.227447,195.769095 423.263762,195.655514 C423.165175,196.175997 423.066589,196.697494 422.968002,197.220005 C422.487999,199.764018 422.248002,202.331993 422.248002,204.924005 C422.248002,210.588034 423.42399,215.363986 425.776002,219.252005 C428.128013,223.140025 431.199983,226.259994 434.992002,228.612005 C438.784021,230.964017 443.103977,232.668 447.952002,233.724005 C452.800026,234.780011 457.719977,235.308005 462.712002,235.308005 C470.680042,235.308005 477.447974,234.324015 483.016002,232.356005 C488.58403,230.387996 493.287982,227.508024 497.128002,223.716005 C500.968021,219.923987 504.06399,215.196034 506.416002,209.532005 C508.768013,203.867977 510.711994,197.340042 512.248002,189.948005 L514.122067,181.0085 C513.779356,183.931208 513.608002,186.911039 513.608002,189.948005 C513.608002,204.636079 517.567962,215.867967 525.488002,223.644005 C533.408041,231.420044 544.663929,235.308005 559.256002,235.308005 C564.152026,235.308005 568.855979,234.324015 573.368002,232.356005 C577.880024,230.387996 581.815985,227.100029 585.176002,222.492005 L585.464002,222.492005 L585.464002,233.004005 L599.332002,233.004005 L621.552002,233.004005 L630.912002,188.652005 L672.528002,188.652005 L663.168002,233.004005 L685.920002,233.004005 L707.664002,130.188005 L684.912002,130.188005 L676.560002,169.644005 L634.944002,169.644005 L643.296002,130.188005 L620.544002,130.188005 L610.621313,177.420005 Z M436.3044,133.186298 L424.517716,133.186298 L424.520002,133.200012 L406.412977,133.200012 C409.430151,134.780765 412.130482,136.704757 414.514,138.972005 C418.45002,142.716024 421.497989,147.323978 423.658,152.796005 C425.818011,158.268033 426.898,164.603969 426.898,171.804005 C426.898,174.421481 426.778198,177.002082 426.538594,179.545816 L436.3044,133.186298 Z M273.181655,133.200012 L314.324419,133.200012 L300.241996,203.335998 L273.181655,133.200012 Z M261.702111,67.9714904 C260.570514,70.8451726 259.029824,73.4119911 257.080002,75.6720122 C254.967991,78.1200244 252.472016,80.160004 249.592002,81.7920122 C246.711987,83.4240204 243.544019,84.4800098 240.088002,85.2480122 C244.312023,86.5920189 247.143995,88.9199956 248.584002,92.2320122 C250.024009,95.5440288 250.744002,99.2639916 250.744002,103.392012 C250.744002,105.696024 250.624003,108.455996 250.384002,111.672012 C250.144001,114.888028 250.024002,118.079996 250.024002,121.248012 C250.024002,122.096667 250.037026,122.929037 250.063075,123.745124 L261.702111,67.9714904 Z M97.9640015,114.192012 L111.788002,49.3920122 L128.780002,49.3920122 C132.812022,49.3920122 136.243987,49.9920062 139.076002,51.1920122 C141.908016,52.3920182 144.235992,54.0960012 146.060002,56.3040122 C147.884011,58.5120232 149.203997,61.1279971 150.020002,64.1520122 C150.836006,67.1760273 151.244002,70.5599935 151.244002,74.3040122 C151.244002,79.7760396 150.452009,84.9119882 148.868002,89.7120122 C147.283994,94.5120362 144.980017,98.735994 141.956002,102.384012 C138.931986,106.03203 135.188024,108.912002 130.724002,111.024012 C126.259979,113.136023 121.14803,114.192012 115.388002,114.192012 L97.9640015,114.192012 Z M196.888002,76.8960122 L202.936002,47.9520122 L224.392002,47.9520122 C226.600013,47.9520122 228.711992,48.0960108 230.728002,48.3840122 C232.744012,48.6720136 234.519994,49.2480079 236.056002,50.1120122 C237.592009,50.9760165 238.815997,52.2480038 239.728002,53.9280122 C240.640006,55.6080206 241.096002,57.8399983 241.096002,60.6240122 C241.096002,63.5040266 240.448008,65.9760019 239.152002,68.0400122 C237.855995,70.1040225 236.128013,71.7840057 233.968002,73.0800122 C231.807991,74.3760187 229.336016,75.3360091 226.552002,75.9600122 C223.767988,76.5840153 220.840017,76.8960122 217.768002,76.8960122 L196.888002,76.8960122 Z M369.224002,93.4560122 L391.400002,52.5600122 L391.688002,52.5600122 L396.728002,93.4560122 L369.224002,93.4560122 Z M448.329987,114.170298 L462.153987,49.3702977 L479.145987,49.3702977 C483.178007,49.3702977 486.609972,49.9702917 489.441987,51.1702977 C492.274001,52.3703037 494.601977,54.0742867 496.425987,56.2822977 C498.249996,58.4903087 499.569982,61.1062826 500.385987,64.1302977 C501.201991,67.1543128 501.609987,70.538279 501.609987,74.2822977 C501.609987,79.7543251 500.817994,84.8902737 499.233987,89.6902977 C497.649979,94.4903217 495.346002,98.7142795 492.321987,102.362298 C489.297971,106.010316 485.554009,108.890287 481.089987,111.002298 C476.625964,113.114308 471.514015,114.170298 465.753987,114.170298 L448.329987,114.170298 Z M347.09,189.940005 C347.09,185.043981 347.761993,180.028031 349.106,174.892005 C350.450007,169.75598 352.489986,165.100026 355.226,160.924005 C357.962014,156.747985 361.465979,153.340019 365.738,150.700005 C370.010022,148.059992 375.025971,146.740005 380.786,146.740005 C385.010021,146.740005 388.561986,147.459998 391.442,148.900005 C394.322015,150.340013 396.673991,152.259993 398.498,154.660005 C400.322009,157.060017 401.641996,159.867989 402.458,163.084005 C403.274004,166.300022 403.682,169.731987 403.682,173.380005 C403.682,178.27603 402.986007,183.26798 401.594,188.356005 C400.201993,193.444031 398.114014,198.075985 395.33,202.252005 C392.545986,206.428026 389.090021,209.835992 384.962,212.476005 C380.83398,215.116019 375.986028,216.436005 370.418,216.436005 C366.28998,216.436005 362.762015,215.716013 359.834,214.276005 C356.905986,212.835998 354.50601,210.892018 352.634,208.444005 C350.761991,205.995993 349.370005,203.188021 348.458,200.020005 C347.545996,196.85199 347.09,193.492023 347.09,189.940005 Z M735.916004,149.196005 L718.348004,233.004005 L741.100004,233.004005 L758.668004,149.196005 L789.484004,149.196005 L793.516004,130.188005 L707.692004,130.188005 L703.660004,149.196005 L735.916004,149.196005 Z" id="DREAD"></path>
        </g>
    </g>
</svg>